<?xml version="1.0" encoding="UTF-8" standalone="no"?> <svg id="Layer_1" xmlns="http://www.w3.org/2000/svg" viewBox="0 0 120 120"><defs><style>.cls-1{fill:#d8860f;}</style></defs><title>Beer icon</title><rect class="cls-1" x="49.97" y="60.38" width="3" height="23.11" rx="1"/><rect class="cls-1" x="61.28" y="60.38" width="3" height="23.11" rx="1"/><path class="cls-1" d="M95.43,51.49a7.67,7.67,0,0,0-5.16-1.94H85.73V48.7a12,12,0,0,0,7.63-11.26A11.91,11.91,0,0,0,82,25.41,19.87,19.87,0,0,0,64.22,15C56,15,48.71,19.73,45.81,26.84h-.42a12.12,12.12,0,0,0-9.52,19.62V55a5,5,0,0,0,4,4.88V89.31a6,6,0,0,0,.1,1,4.94,4.94,0,0,0,.86,9.8h44a4.94,4.94,0,0,0,.86-9.8,6,6,0,0,0,.1-1v-1h4.6a7.61,7.61,0,0,0,5.1-1.94A7.22,7.22,0,0,0,97.55,81V56.89A7.22,7.22,0,0,0,95.43,51.49ZM87.71,95.22a2.94,2.94,0,0,1-2.94,2.94h-44a2.94,2.94,0,1,1,0-5.88h44A2.94,2.94,0,0,1,87.71,95.22ZM71.94,69.93h.65V82.49a1,1,0,0,0,1,1h1a1,1,0,0,0,1-1V69.15a5,5,0,0,0,2.35-4.22V48.84a12.42,12.42,0,0,0,1.29.36l.25,0a9.82,9.82,0,0,0,1.31.18h.09c.25,0,.5,0,.76,0l.4,0,.45,0c.34,0,.67-.07,1-.13l.24,0v40a4,4,0,0,1-.12,1H42a4,4,0,0,1-.12-1V60h0a5,5,0,0,0,5-5V51a12.12,12.12,0,0,0,6-2.53,20.5,20.5,0,0,0,11.31,3.34,21.05,21.05,0,0,0,2.72-.18V64.93A5,5,0,0,0,71.94,69.93ZM84.56,47l-.09,0-.24.07a9.45,9.45,0,0,1-2.17.35h-.31c-.18,0-.36,0-.54,0l-.43,0-.57-.08-.41-.07-.54-.13c-.17,0-.33-.1-.5-.15s-.29-.09-.43-.15a8.63,8.63,0,0,1-.94-.41l-1.45-.73V64.93a3,3,0,0,1-3,3h-1a3,3,0,0,1-3-3V49.22l-1.18.22a19,19,0,0,1-3.54.34,18.47,18.47,0,0,1-10.79-3.41l-.66-.47-.59.54a10.14,10.14,0,0,1-6.35,2.61l-1,0V55a3,3,0,0,1-3,3h-1l-.21,0a3,3,0,0,1-2.83-3V45.73l-.23-.28a10.11,10.11,0,0,1,7.75-16.62c.32,0,.64,0,1,.05a10.49,10.49,0,0,1,8,5.28l1.74-1a12.45,12.45,0,0,0-8.17-6,18.28,18.28,0,0,1,32.58-.27l.25.53A15.71,15.71,0,0,1,81.51,30l.34,4.58a15.68,15.68,0,0,1-.67,3.58l1.91.6a17.93,17.93,0,0,0-.2-11.22A10.09,10.09,0,0,1,84.56,47Zm1.17,8.66H90.4a1.4,1.4,0,0,1,.82.26,1.45,1.45,0,0,1,.23,1V81a1.5,1.5,0,0,1-.23,1,1.56,1.56,0,0,1-.82.26H85.73Zm9.82,11.7V81a5.19,5.19,0,0,1-1.5,4,5.59,5.59,0,0,1-3.78,1.39H86V84.2h4.28a3.51,3.51,0,0,0,2.28-.81A3.25,3.25,0,0,0,93.45,81V56.89a3.21,3.21,0,0,0-.85-2.42,3.45,3.45,0,0,0-2.28-.81H86V51.55h4.23a5.59,5.59,0,0,1,3.78,1.39,5.21,5.21,0,0,1,1.5,4Z"/></svg>